<?xml version="1.0" encoding="UTF-8"?>
<svg width="700pt" height="700pt" version="1.1" viewBox="0 0 700 700" xmlns="http://www.w3.org/2000/svg">
 <g>
  <path d="m402.5 175h52.5v52.5h-52.5z"/>
  <path d="m210 105h-35v52.5h52.5v-35c0-9.6719-7.8359-17.5-17.5-17.5z"/>
  <path d="m245 245h52.5v52.5h-52.5z"/>
  <path d="m455 105h-35c-9.6719 0-17.5 7.8281-17.5 17.5v35h52.5z"/>
  <path d="m105 105h52.5v52.5h-52.5z"/>
  <path d="m175 245h52.5v52.5h-52.5z"/>
  <path d="m105 245h52.5v52.5h-52.5z"/>
  <path d="m245 175h52.5v52.5h-52.5z"/>
  <path d="m105 175h52.5v52.5h-52.5z"/>
  <path d="m525 35h-35c-9.6719 0-17.5 7.8281-17.5 17.5v35h52.5z"/>
  <path d="m175 175h52.5v52.5h-52.5z"/>
  <path d="m315 245h70v52.5h-70z"/>
  <path d="m245 315h52.5v52.5h-52.5z"/>
  <path d="m402.5 245h52.5v52.5h-52.5z"/>
  <path d="m315 175h70v52.5h-70z"/>
  <path d="m542.5 245h52.5v52.5h-52.5z"/>
  <path d="m542.5 367.5h35c9.6719 0 17.5-7.8281 17.5-17.5v-35h-52.5z"/>
  <path d="m175 315h52.5v52.5h-52.5z"/>
  <path d="m577.5 35h-35v52.5h52.5v-35c0-9.6719-7.8281-17.5-17.5-17.5z"/>
  <path d="m105 350c0 9.6719 7.8359 17.5 17.5 17.5h35v-52.5h-52.5z"/>
  <path d="m542.5 175h52.5v52.5h-52.5z"/>
  <path d="m542.5 105h52.5v52.5h-52.5z"/>
  <path d="m472.5 315h52.5v52.5h-52.5z"/>
  <path d="m315 315h70v52.5h-70z"/>
  <path d="m402.5 315h52.5v52.5h-52.5z"/>
  <path d="m472.5 245h52.5v52.5h-52.5z"/>
  <path d="m140 35h-17.5c-9.6641 0-17.5 7.8281-17.5 17.5v35h52.5v-35c0-9.6719-7.8359-17.5-17.5-17.5z"/>
  <path d="m472.5 105h52.5v52.5h-52.5z"/>
  <path d="m472.5 175h52.5v52.5h-52.5z"/>
  <path d="m560 402.5h-35v52.5h52.5v-35c0-9.6719-7.8281-17.5-17.5-17.5z"/>
  <path d="m385 472.5h52.5v52.5h-52.5z"/>
  <path d="m245 402.5h52.5v52.5h-52.5z"/>
  <path d="m315 472.5h52.5v52.5h-52.5z"/>
  <path d="m385 402.5h52.5v52.5h-52.5z"/>
  <path d="m315 402.5h52.5v52.5h-52.5z"/>
  <path d="m245 472.5h52.5v52.5h-52.5z"/>
  <path d="m175 507.5c0 9.6719 7.8359 17.5 17.5 17.5h35v-52.5h-52.5z"/>
  <path d="m525 525h35c9.6719 0 17.5-7.8281 17.5-17.5v-35h-52.5z"/>
  <path d="m455 402.5h52.5v52.5h-52.5z"/>
  <path d="m455 472.5h52.5v52.5h-52.5z"/>
  <path d="m175 420v35h52.5v-52.5h-35c-9.6641 0-17.5 7.8281-17.5 17.5z"/>
 </g>
</svg>
